<svg xmlns="http://www.w3.org/2000/svg" width="1128" height="929" viewBox="0 0 1128 929">
<g>
<path d="M 823.29 858.69 C815.02,860.37 799.20,860.48 553.50,860.65 C544.65,860.65 536.09,860.66 527.81,860.66 C302.29,860.82 287.03,860.83 272.51,857.58 C270.92,857.22 269.34,856.83 267.50,856.39 C259.36,854.46 245.37,849.55 243.45,847.96 C242.72,847.35 241.82,844.38 241.44,841.36 C240.36,832.71 234.20,824.61 214.49,805.86 C210.64,802.20 206.12,797.70 204.43,795.86 C202.75,794.01 197.41,788.67 192.57,784.00 C187.73,779.33 182.52,773.70 181.00,771.50 C179.48,769.30 176.27,765.67 173.87,763.43 C171.46,761.19 167.90,757.59 165.94,755.43 C161.47,750.48 158.09,748.00 155.84,748.00 C152.86,748.00 149.11,739.94 146.25,727.38 L 143.55 715.50 L 143.25 478.25 L 142.96 241.00 L 957.00 241.00 L 957.11 368.25 C957.17,438.24 957.13,502.15 957.02,510.28 C956.87,520.69 957.17,525.50 958.02,526.53 C958.90,527.59 959.03,530.26 958.47,536.25 C957.76,543.91 957.32,575.38 957.74,588.00 C957.85,591.03 957.57,621.85 957.14,656.50 C956.32,722.18 956.00,726.89 951.61,737.40 C950.23,740.69 944.68,747.13 942.35,748.13 C941.88,748.33 940.23,750.08 938.67,752.00 C937.12,753.92 932.53,759.10 928.48,763.50 C915.59,777.51 901.29,793.63 900.89,794.61 C900.55,795.46 894.73,800.55 880.12,812.82 C864.89,825.60 852.00,841.03 852.00,846.48 C852.00,850.17 839.81,855.36 823.29,858.69 ZM 529.83 455.02 C531.30,455.46 540.21,455.87 549.64,455.91 C572.25,456.03 584.93,453.74 589.50,448.73 C592.62,445.31 598.00,441.45 598.00,442.63 C598.00,443.00 598.94,442.46 600.08,441.43 C601.56,440.09 602.04,438.69 601.73,436.60 C601.25,433.32 603.72,425.94 605.71,424.70 C607.36,423.68 607.39,417.35 605.75,416.30 C605.06,415.86 603.77,413.37 602.88,410.77 C601.99,408.17 601.67,406.30 602.17,406.60 C604.04,407.76 601.96,401.42 599.92,399.75 C597.59,397.85 595.51,397.39 596.50,399.00 C597.51,400.63 596.36,400.14 594.87,398.31 C593.69,396.85 593.71,396.73 595.00,397.47 C595.89,397.98 596.16,397.95 595.67,397.41 C595.21,396.91 594.53,396.48 594.17,396.45 C592.07,396.30 589.05,394.74 589.48,394.03 C589.76,393.58 589.19,392.23 588.22,391.03 C586.47,388.87 577.53,386.54 563.00,384.46 C549.46,382.53 521.12,385.42 515.26,389.34 C513.47,390.53 512.01,392.04 512.01,392.71 C512.00,394.74 507.74,398.05 505.89,397.46 C504.21,396.93 502.74,398.28 502.37,400.71 C502.27,401.37 500.97,404.40 499.49,407.43 C497.10,412.31 496.83,413.87 497.16,420.73 C497.38,425.26 498.23,429.85 499.19,431.74 C500.20,433.74 500.46,435.22 499.85,435.59 C499.27,435.95 499.57,436.98 500.60,438.11 C501.54,439.15 502.02,440.31 501.66,440.67 C501.29,441.04 501.73,442.15 502.62,443.14 C503.87,444.51 504.70,444.70 506.14,443.92 C507.18,443.37 507.91,443.28 507.76,443.73 C507.62,444.17 508.17,445.36 509.00,446.37 C513.84,452.26 514.70,452.77 520.91,453.49 C524.35,453.89 528.36,454.58 529.83,455.02 ZM 534.50 359.88 C548.21,361.75 576.55,359.48 583.26,355.98 C585.38,354.88 587.65,353.52 588.31,352.97 C593.03,348.99 594.43,348.00 595.34,348.00 C597.61,348.00 601.00,343.58 601.00,340.61 C601.00,336.85 603.94,328.78 605.70,327.70 C607.52,326.58 607.40,319.09 605.55,318.38 C604.75,318.07 603.62,316.40 603.05,314.66 C602.47,312.92 601.01,309.92 599.81,308.00 C598.61,306.08 597.52,303.92 597.39,303.21 C597.27,302.50 596.00,301.00 594.58,299.88 C593.15,298.76 591.33,297.19 590.52,296.38 C589.71,295.57 586.90,293.95 584.28,292.76 C580.19,290.92 576.99,290.54 562.00,290.06 C552.38,289.75 538.97,289.79 532.22,290.15 C521.73,290.70 519.14,291.19 514.47,293.47 C509.50,295.90 508.51,296.94 508.89,299.27 C508.96,299.70 507.52,301.36 505.70,302.96 C503.88,304.56 501.52,307.48 500.46,309.45 C499.33,311.54 497.99,312.82 497.23,312.54 C495.69,311.94 493.95,316.00 494.12,319.82 C494.24,322.48 494.24,322.48 494.92,319.50 C495.51,316.94 495.70,316.79 496.21,318.50 C496.55,319.60 496.82,322.57 496.82,325.10 C496.81,330.11 500.11,339.04 503.41,342.99 L 505.50 345.49 L 503.25 343.59 C499.89,340.76 500.53,343.14 504.11,346.80 C509.39,352.20 518.71,357.84 523.28,358.41 C525.60,358.69 530.65,359.36 534.50,359.88 ZM 227.74 455.46 C239.31,457.62 260.84,457.14 274.86,454.40 C286.81,452.07 287.63,451.70 288.17,448.50 C288.59,445.94 291.67,444.08 295.56,444.04 C299.24,443.99 304.40,439.26 303.09,437.14 C302.35,435.95 304.38,429.21 307.13,423.76 C308.28,421.47 308.24,417.27 307.06,416.54 C306.55,416.22 306.12,414.28 306.12,412.23 C306.11,410.18 305.89,407.52 305.63,406.32 C304.98,403.43 302.05,399.04 300.63,398.85 C300.01,398.76 299.05,398.63 298.50,398.55 C296.15,398.21 292.78,395.27 291.37,392.34 C290.08,389.65 288.88,388.91 283.18,387.34 C277.61,385.81 272.77,385.50 254.00,385.50 C241.62,385.50 229.66,385.77 227.42,386.10 C221.49,386.97 211.66,391.68 212.30,393.34 C212.59,394.10 210.45,397.18 207.44,400.34 C201.04,407.05 198.43,414.17 199.29,422.54 C199.95,428.91 203.84,436.85 208.04,440.38 C210.92,442.80 211.71,444.31 211.92,447.74 C212.07,450.15 220.00,454.02 227.74,455.46 ZM 367.64 550.05 C372.12,551.84 374.65,551.97 400.00,551.66 C417.84,551.44 428.82,550.90 431.25,550.11 C435.41,548.77 440.23,544.82 439.78,543.10 C439.63,542.49 440.96,541.05 442.75,539.90 C444.54,538.75 446.00,538.26 446.00,538.81 C446.00,540.38 449.96,538.95 451.00,537.00 C451.52,536.03 451.90,533.95 451.85,532.37 C451.80,530.79 452.47,527.70 453.34,525.50 C456.86,516.55 454.71,505.29 447.99,497.65 C446.23,495.64 445.36,494.00 446.05,494.00 C446.86,494.00 446.64,493.26 445.43,491.92 C444.17,490.53 442.71,489.99 441.02,490.28 C437.89,490.83 433.90,489.84 433.84,488.50 C433.64,483.26 427.74,482.00 403.50,482.00 C376.90,482.00 362.78,484.39 364.41,488.62 C364.73,489.46 364.55,489.84 363.99,489.49 C363.44,489.16 363.00,489.39 363.00,490.00 C363.00,490.61 362.52,490.82 361.93,490.46 C360.45,489.54 354.06,497.23 350.75,503.90 C348.81,507.81 348.00,510.99 348.00,514.67 C348.00,519.65 346.73,522.41 345.66,519.76 C345.39,519.07 345.12,519.54 345.08,520.82 C344.98,523.60 346.78,527.25 347.90,526.56 C348.35,526.29 349.23,527.29 349.87,528.78 C350.95,531.31 350.92,531.36 349.52,529.56 C348.02,527.64 348.00,527.64 348.00,529.61 C348.00,532.09 349.83,534.00 352.20,534.00 C353.80,534.00 354.17,534.55 353.93,536.58 C353.90,536.89 354.73,537.90 355.79,538.83 C356.85,539.75 358.01,541.45 358.38,542.62 C359.34,545.64 362.06,547.82 367.64,550.05 ZM 821.81 550.97 C826.04,551.45 839.85,551.72 852.50,551.59 C873.92,551.35 875.90,551.18 881.30,549.01 C886.74,546.83 889.74,544.00 888.59,542.14 C888.31,541.70 890.13,539.34 892.63,536.92 C897.23,532.44 901.00,526.39 901.00,523.48 C901.00,522.60 901.40,522.13 901.90,522.44 C902.39,522.74 903.06,522.28 903.40,521.41 C904.30,519.06 904.13,517.80 903.00,518.50 C902.41,518.87 902.03,517.78 902.07,515.81 C902.13,513.05 902.28,512.83 903.00,514.50 C903.72,516.18 903.87,515.99 903.93,513.30 C904.02,509.41 902.14,505.00 900.41,505.00 C899.71,505.00 898.82,504.01 898.44,502.81 C898.06,501.61 895.44,498.37 892.62,495.61 C889.81,492.86 888.06,490.94 888.75,491.36 C890.95,492.70 890.09,491.02 887.03,488.03 C883.77,484.84 882.32,484.52 864.00,482.98 C849.40,481.76 833.15,481.73 829.40,482.93 C827.80,483.44 824.35,484.14 821.72,484.49 C818.09,484.98 816.10,485.97 813.50,488.57 C811.61,490.45 809.60,492.00 809.04,492.00 C807.11,492.00 799.86,499.34 797.76,503.43 C796.60,505.67 795.39,510.42 795.06,514.00 C794.66,518.39 794.07,520.42 793.24,520.25 C792.42,520.08 792.00,521.37 792.00,524.07 C792.00,528.99 793.06,531.16 796.61,533.48 C798.99,535.04 799.24,535.06 798.69,533.62 C797.77,531.23 798.33,531.57 802.88,536.12 C807.37,540.61 807.76,541.23 805.52,540.37 C804.27,539.89 804.20,540.29 805.13,542.94 C806.61,547.19 812.22,549.89 821.81,550.97 ZM 240.50 360.35 C246.42,361.04 251.57,360.94 255.50,360.05 C257.70,359.56 263.26,358.89 267.86,358.57 C272.46,358.25 278.08,357.70 280.36,357.35 C285.65,356.54 291.96,353.39 292.12,351.48 C292.19,350.67 292.31,349.64 292.38,349.19 C292.44,348.74 294.27,346.83 296.43,344.94 C301.46,340.53 306.00,333.38 306.00,329.86 C306.00,328.35 306.45,326.84 307.00,326.50 C308.61,325.51 308.23,313.38 306.55,311.69 C305.75,310.89 305.30,309.96 305.54,309.61 C305.78,309.27 305.48,309.40 304.87,309.91 C303.54,311.02 297.85,304.36 295.48,298.91 C293.39,294.13 288.80,292.07 277.54,290.87 C265.23,289.56 240.29,289.55 230.30,290.86 C221.47,292.01 215.00,294.20 215.00,296.04 C215.00,296.67 212.12,299.97 208.59,303.38 C203.23,308.56 201.90,310.53 200.47,315.45 C197.54,325.55 199.97,335.82 206.96,342.81 C209.92,345.77 211.01,347.74 209.00,346.50 C207.38,345.50 207.84,346.87 210.25,350.18 C214.04,355.40 222.59,358.28 240.50,360.35 ZM 504.50 439.01 C505.66,440.88 503.31,440.00 501.40,437.85 C499.51,435.72 499.52,435.72 501.69,436.86 C502.90,437.49 504.17,438.46 504.50,439.01 Z" fill="rgb(33,35,34)"/>
<path d="M 823.00 865.79 C819.78,866.40 285.50,867.17 284.90,866.56 C284.65,866.31 279.92,865.43 274.40,864.61 C262.53,862.83 249.02,858.67 235.08,852.49 C184.81,830.20 149.71,785.05 140.07,730.28 L 137.92 718.06 L 137.96 459.28 C138.00,222.35 138.34,184.33 140.45,182.22 C140.75,181.91 141.00,182.37 141.00,183.23 C141.00,185.51 143.81,186.22 144.87,184.21 C145.36,183.27 146.10,180.52 146.50,178.09 C147.35,172.94 154.51,150.85 156.69,146.63 C158.52,143.10 162.46,139.33 166.50,137.26 C168.15,136.41 170.98,134.44 172.78,132.86 C174.59,131.29 176.62,129.99 177.28,129.98 C177.95,129.97 180.30,128.36 182.50,126.41 C184.70,124.46 188.39,121.53 190.71,119.91 C193.02,118.29 195.52,116.10 196.26,115.04 C197.00,113.98 202.18,108.38 207.77,102.60 C213.36,96.81 219.02,90.34 220.36,88.22 C221.70,86.10 223.97,83.60 225.40,82.66 C226.83,81.72 228.00,80.31 228.00,79.53 C228.00,78.75 228.84,77.53 229.87,76.81 C230.89,76.09 233.24,73.25 235.08,70.50 C236.93,67.75 239.24,64.63 240.22,63.56 C241.20,62.50 242.00,61.31 242.00,60.93 C242.00,59.94 254.59,55.40 263.75,53.08 C265.99,52.51 267.86,52.01 269.73,51.56 C284.67,47.99 300.47,47.99 517.62,48.03 C527.84,48.04 538.50,48.04 549.63,48.04 C810.10,48.08 811.48,48.10 822.50,51.27 C825.19,52.04 826.00,53.47 826.00,57.44 C826.00,60.06 826.59,62.25 827.50,63.00 C828.33,63.68 829.00,65.16 829.00,66.29 C829.00,69.69 832.26,76.00 834.02,76.00 C836.03,76.00 840.00,80.08 840.00,82.15 C840.00,82.98 841.10,84.25 842.43,84.96 C843.77,85.68 845.40,87.55 846.04,89.11 C846.69,90.67 849.13,93.71 851.46,95.85 C853.79,98.00 855.98,100.49 856.32,101.39 C856.67,102.29 857.97,103.43 859.22,103.92 C860.48,104.41 862.17,105.85 863.00,107.13 C864.70,109.78 876.15,120.96 877.17,120.99 C877.54,120.99 879.83,122.99 882.26,125.41 C884.69,127.84 888.00,130.66 889.62,131.66 C892.94,133.73 898.12,137.71 904.62,143.20 C909.43,147.26 920.64,153.00 923.75,153.00 C925.77,153.00 933.23,157.54 933.84,159.13 C934.02,159.61 934.58,159.76 935.09,159.45 C935.59,159.14 936.00,159.30 936.00,159.82 C936.00,160.91 941.53,162.33 944.72,162.06 C947.65,161.80 950.31,166.20 952.47,174.86 C954.37,182.49 956.55,186.38 958.50,185.64 C961.28,184.57 962.11,188.06 962.90,204.16 C963.34,213.15 963.58,332.55 963.43,469.50 L 963.17 718.50 L 960.60 732.16 C957.40,749.15 953.40,761.45 946.69,774.98 C931.06,806.53 907.04,831.24 875.00,848.74 C862.65,855.49 843.03,862.39 830.00,864.56 C827.53,864.98 824.38,865.53 823.00,865.79 ZM 823.29 858.69 C839.81,855.36 852.00,850.17 852.00,846.48 C852.00,841.03 864.89,825.60 880.12,812.82 C894.73,800.55 900.55,795.46 900.89,794.61 C901.29,793.63 915.59,777.51 928.48,763.50 C932.53,759.10 937.12,753.92 938.67,752.00 C940.23,750.08 941.88,748.33 942.35,748.13 C944.68,747.13 950.23,740.69 951.61,737.40 C956.00,726.89 956.32,722.18 957.14,656.50 C957.57,621.85 957.85,591.03 957.74,588.00 C957.32,575.38 957.76,543.91 958.47,536.25 C959.03,530.26 958.90,527.59 958.02,526.53 C957.17,525.50 956.87,520.69 957.02,510.28 C957.13,502.15 957.17,438.24 957.11,368.25 L 957.00 241.00 L 147.82 241.00 L 550.18 240.75 L 956.50 240.50 L 956.50 235.50 L 144.50 235.50 L 144.18 238.25 L 143.87 241.00 L 142.96 241.00 L 143.25 478.25 L 143.55 715.50 L 146.25 727.38 C149.11,739.94 152.86,748.00 155.84,748.00 C158.09,748.00 161.47,750.48 165.94,755.43 C167.90,757.59 171.46,761.19 173.87,763.43 C176.27,765.67 179.48,769.30 181.00,771.50 C182.52,773.70 187.73,779.33 192.57,784.00 C197.41,788.67 202.75,794.01 204.43,795.86 C206.12,797.70 210.64,802.20 214.49,805.86 C234.20,824.61 240.36,832.71 241.44,841.36 C241.82,844.38 242.72,847.35 243.45,847.96 C245.37,849.55 259.36,854.46 267.50,856.39 C269.34,856.83 270.92,857.22 272.51,857.58 C287.03,860.83 302.29,860.82 527.81,860.66 C536.09,860.66 544.65,860.65 553.50,860.65 C799.20,860.48 815.02,860.37 823.29,858.69 ZM 611.17 163.85 C618.55,167.51 628.62,166.54 633.85,161.68 C638.49,157.36 640.33,152.16 640.25,143.50 C640.21,139.10 639.69,134.23 639.09,132.68 C632.71,116.17 610.83,115.72 602.53,131.92 C601.12,134.65 600.86,137.17 601.18,144.55 C601.52,152.44 601.96,154.35 604.21,157.74 C605.73,160.04 608.66,162.61 611.17,163.85 ZM 455.00 121.00 L 455.00 165.00 L 466.50 165.00 C473.50,165.00 478.00,164.61 478.00,164.00 C478.00,163.45 478.75,163.00 479.66,163.00 C482.68,163.00 487.79,158.12 489.52,153.59 C492.19,146.59 491.32,134.59 487.75,129.20 C483.39,122.61 479.12,121.00 466.04,121.00 ZM 534.50 359.88 C530.65,359.36 525.60,358.69 523.28,358.41 C518.71,357.84 509.39,352.20 504.11,346.80 C500.53,343.14 499.89,340.76 503.25,343.59 L 505.50 345.49 L 503.41 342.99 C500.11,339.04 496.81,330.11 496.82,325.10 C496.82,322.57 496.55,319.60 496.21,318.50 C495.70,316.79 495.51,316.94 494.92,319.50 C494.24,322.48 494.24,322.48 494.12,319.82 C493.95,316.00 495.69,311.94 497.23,312.54 C497.99,312.82 499.33,311.54 500.46,309.45 C501.01,308.42 501.92,307.13 502.92,305.91 C491.48,319.90 496.81,343.16 514.32,349.36 C517.67,350.55 524.99,350.86 551.00,350.91 C583.01,350.98 583.57,350.95 588.51,348.65 C598.28,344.10 603.95,334.88 603.97,323.50 C603.99,311.79 598.17,302.71 587.57,297.89 C583.89,296.22 580.45,296.04 551.43,296.02 C515.64,296.00 513.51,296.31 506.18,302.58 C504.98,303.61 503.90,304.71 502.94,305.88 C503.85,304.77 504.84,303.72 505.70,302.96 C507.52,301.36 508.96,299.70 508.89,299.27 C508.51,296.94 509.50,295.90 514.47,293.47 C519.14,291.19 521.73,290.70 532.22,290.15 C538.97,289.79 552.38,289.75 562.00,290.06 C576.99,290.54 580.19,290.92 584.28,292.76 C586.90,293.95 589.71,295.57 590.52,296.38 C591.33,297.19 593.15,298.76 594.58,299.88 C596.00,301.00 597.27,302.50 597.39,303.21 C597.52,303.92 598.61,306.08 599.81,308.00 C601.01,309.92 602.47,312.92 603.05,314.66 C603.62,316.40 604.75,318.07 605.55,318.38 C607.40,319.09 607.52,326.58 605.70,327.70 C603.94,328.78 601.00,336.85 601.00,340.61 C601.00,343.58 597.61,348.00 595.34,348.00 C594.43,348.00 593.03,348.99 588.31,352.97 C587.65,353.52 585.38,354.88 583.26,355.98 C576.55,359.48 548.21,361.75 534.50,359.88 ZM 657.67 165.33 C658.03,165.70 660.06,166.00 662.17,166.00 L 666.00 166.00 L 666.00 149.00 L 674.61 149.00 L 678.00 156.00 C679.86,159.85 681.78,163.00 682.25,163.00 C682.73,163.00 682.87,163.41 682.56,163.91 C682.25,164.41 684.47,164.97 687.50,165.16 C690.53,165.35 693.00,165.40 693.00,165.29 C693.00,164.97 687.86,155.68 687.03,154.50 C686.65,153.95 685.76,152.05 685.06,150.28 C683.84,147.20 683.93,146.93 687.39,143.67 C690.64,140.60 691.00,139.74 691.00,135.04 C691.00,123.89 686.85,121.23 669.25,121.06 L 657.00 120.94 L 657.00 142.80 C657.00,154.83 657.30,164.97 657.67,165.33 ZM 718.50 164.12 C725.81,167.48 737.92,166.10 743.21,161.31 C744.67,159.99 745.00,158.07 745.00,150.85 L 745.00 142.00 L 726.87 142.00 L 727.19 145.25 C727.48,148.30 727.76,148.52 731.75,148.81 C735.95,149.11 736.00,149.16 736.00,152.90 C736.00,155.98 735.53,156.89 733.45,157.84 C727.65,160.48 720.74,158.01 718.42,152.47 C717.64,150.59 717.00,146.01 717.00,142.28 C717.01,132.09 720.89,127.00 728.66,127.00 C731.37,127.00 737.41,132.52 736.44,134.10 C736.13,134.60 737.93,135.00 740.44,135.00 C745.32,135.00 745.58,134.66 743.93,130.32 C742.85,127.48 737.01,121.02 736.98,122.63 C736.98,123.11 736.57,122.87 736.08,122.09 C734.87,120.19 725.15,119.47 720.67,120.94 C711.61,123.93 708.00,130.08 708.00,142.49 C708.00,154.99 710.69,160.53 718.50,164.12 ZM 411.64 164.97 C413.21,165.44 416.98,165.87 420.02,165.91 C426.63,166.02 431.53,163.72 434.75,159.00 C436.87,155.89 437.00,154.70 437.00,138.35 L 437.00 121.00 L 428.00 121.00 L 428.00 137.55 C428.00,153.78 427.95,154.14 425.55,156.55 C422.95,159.14 419.76,159.62 415.63,158.05 C411.46,156.46 410.72,153.69 410.90,140.26 C410.99,133.45 410.78,126.33 410.42,124.44 C409.80,121.12 409.62,121.00 405.26,121.00 L 400.74 121.00 L 401.20 137.75 C401.67,155.24 402.37,158.31 406.79,162.31 C407.89,163.30 410.07,164.50 411.64,164.97 ZM 309.42 164.10 C314.30,166.32 323.69,166.58 328.28,164.64 C332.93,162.67 335.18,159.68 335.67,154.79 C336.49,146.78 332.71,143.34 316.80,137.57 C309.53,134.94 309.30,128.78 316.43,127.45 C321.11,126.57 323.75,127.62 325.54,131.07 C326.87,133.65 327.59,134.00 331.53,134.00 C336.83,134.00 337.35,132.32 333.73,126.90 C330.71,122.37 325.72,120.00 319.22,120.00 C310.04,120.00 303.46,124.36 302.35,131.20 C301.22,138.19 306.18,143.08 317.92,146.57 C324.22,148.44 326.25,150.13 326.25,153.50 C326.25,157.06 323.70,159.00 319.03,159.00 C314.84,159.00 311.25,156.78 309.96,153.40 C309.21,151.42 308.35,151.00 305.02,151.00 C301.26,151.00 301.00,151.19 301.00,153.87 C301.00,157.68 304.42,161.83 309.42,164.10 ZM 763.31 163.75 C763.89,164.65 768.00,165.00 778.06,165.00 L 792.00 165.00 L 792.00 159.00 L 782.62 159.00 C771.63,159.00 770.74,158.41 771.19,151.33 L 771.50 146.50 L 780.75 146.21 L 790.00 145.92 L 790.00 138.70 L 781.58 139.30 C771.72,139.99 770.72,139.37 771.19,132.82 L 771.50 128.50 L 782.31 128.22 L 793.12 127.93 L 792.50 121.50 L 777.16 121.22 L 761.82 120.95 L 762.16 141.72 C762.35,153.15 762.86,163.06 763.31,163.75 ZM 529.83 455.02 C528.36,454.58 524.35,453.89 520.91,453.49 C514.70,452.77 513.84,452.26 509.00,446.37 C508.17,445.36 507.62,444.17 507.76,443.73 C507.91,443.28 507.18,443.37 506.14,443.92 C504.70,444.70 503.87,444.51 502.62,443.14 C501.73,442.15 501.29,441.04 501.66,440.67 C502.02,440.31 501.54,439.15 500.60,438.11 C499.57,436.98 499.27,435.95 499.85,435.59 C500.46,435.22 500.20,433.74 499.19,431.74 C499.15,431.67 499.12,431.59 499.08,431.51 C502.33,438.33 510.66,445.14 518.50,447.06 C520.15,447.47 534.59,447.84 550.59,447.90 C582.22,448.01 585.69,447.56 593.07,442.45 C595.20,440.98 598.42,437.47 600.22,434.66 C603.12,430.14 603.54,428.60 603.85,421.33 C604.05,416.66 603.99,414.27 603.34,412.02 C604.17,414.12 605.17,415.93 605.75,416.30 C607.39,417.35 607.36,423.68 605.71,424.70 C603.72,425.94 601.25,433.32 601.73,436.60 C602.04,438.69 601.56,440.09 600.08,441.43 C598.94,442.46 598.00,443.00 598.00,442.63 C598.00,441.45 592.62,445.31 589.50,448.73 C584.93,453.74 572.25,456.03 549.64,455.91 C540.21,455.87 531.30,455.46 529.83,455.02 ZM 367.64 550.05 C362.06,547.82 359.34,545.64 358.38,542.62 C358.01,541.45 356.85,539.75 355.79,538.83 C354.73,537.90 353.90,536.89 353.93,536.58 C354.17,534.55 353.80,534.00 352.20,534.00 C349.83,534.00 348.00,532.09 348.00,529.61 C348.00,527.64 348.02,527.64 349.52,529.56 C350.92,531.36 350.95,531.31 349.87,528.78 C349.23,527.29 348.35,526.29 347.90,526.56 C346.78,527.25 344.98,523.60 345.08,520.82 C345.12,519.54 345.39,519.07 345.66,519.76 C346.73,522.41 348.00,519.65 348.00,514.67 C348.00,512.68 348.24,510.84 348.76,508.96 C347.37,515.22 348.13,524.47 350.74,529.50 C354.01,535.80 360.25,540.71 367.99,543.07 C369.37,543.48 384.55,543.87 401.73,543.91 C437.07,544.01 438.22,543.82 445.83,536.61 C449.19,533.43 451.40,530.49 452.79,527.08 C452.21,529.00 451.81,531.14 451.85,532.37 C451.90,533.95 451.52,536.03 451.00,537.00 C449.96,538.95 446.00,540.38 446.00,538.81 C446.00,538.26 444.54,538.75 442.75,539.90 C440.96,541.05 439.63,542.49 439.78,543.10 C440.23,544.82 435.41,548.77 431.25,550.11 C428.82,550.90 417.84,551.44 400.00,551.66 C374.65,551.97 372.12,551.84 367.64,550.05 ZM 518.67 165.33 C519.03,165.70 521.28,166.00 523.67,166.00 L 528.00 166.00 L 528.00 148.79 L 534.50 136.54 C538.08,129.80 541.00,123.55 541.00,122.64 C541.00,121.36 540.00,121.00 536.44,121.00 C533.93,121.00 532.14,121.41 532.45,121.91 C532.76,122.42 532.67,122.98 532.26,123.16 C531.84,123.35 529.72,127.21 527.55,131.75 C525.38,136.29 523.35,139.99 523.05,139.98 C522.75,139.98 520.52,135.70 518.11,130.48 L 513.72 121.00 L 508.86 121.00 C506.19,121.00 504.01,121.34 504.02,121.75 C504.03,122.16 507.18,128.32 511.02,135.44 L 518.00 148.38 L 518.00 156.52 C518.00,161.00 518.30,164.97 518.67,165.33 ZM 240.50 360.35 C222.59,358.28 214.04,355.40 210.25,350.18 C207.84,346.87 207.38,345.50 209.00,346.50 C210.90,347.67 210.03,345.98 207.43,343.29 C210.54,346.30 214.44,348.66 218.99,350.09 C220.37,350.52 236.35,350.79 254.50,350.69 C286.30,350.51 287.65,350.42 291.57,348.32 C294.22,346.90 297.41,344.16 300.06,341.19 C298.93,342.55 297.69,343.83 296.43,344.94 C294.27,346.83 292.44,348.74 292.38,349.19 C292.31,349.64 292.19,350.67 292.12,351.48 C291.96,353.39 285.65,356.54 280.36,357.35 C278.08,357.70 272.46,358.25 267.86,358.57 C263.26,358.89 257.70,359.56 255.50,360.05 C251.57,360.94 246.42,361.04 240.50,360.35 ZM 557.50 164.50 L 565.50 165.50 L 565.79 156.29 L 566.07 147.07 L 575.29 146.79 L 584.50 146.50 L 585.13 140.00 L 566.00 140.00 L 566.00 128.00 L 586.00 128.00 L 586.00 120.95 L 557.50 121.50 ZM 227.74 455.46 C220.00,454.02 212.07,450.15 211.92,447.74 C211.71,444.31 210.92,442.80 208.04,440.38 C205.90,438.58 203.84,435.64 202.25,432.34 C202.39,432.61 202.53,432.88 202.68,433.15 C206.10,439.44 211.13,443.65 218.20,446.14 C223.00,447.82 226.43,447.98 254.50,447.75 C284.70,447.51 285.62,447.44 290.24,445.17 C295.01,442.82 301.09,436.74 303.91,431.70 C303.07,434.38 302.70,436.52 303.09,437.14 C304.40,439.26 299.24,443.99 295.56,444.04 C291.67,444.08 288.59,445.94 288.17,448.50 C287.63,451.70 286.81,452.07 274.86,454.40 C260.84,457.14 239.31,457.62 227.74,455.46 ZM 821.81 550.97 C812.22,549.89 806.61,547.19 805.13,542.94 C804.20,540.29 804.27,539.89 805.52,540.37 C807.52,541.14 807.42,540.72 804.16,537.41 L 804.22 537.46 C806.45,539.36 810.12,541.59 812.39,542.41 C815.76,543.63 822.46,543.86 849.50,543.70 C886.30,543.48 885.45,543.62 893.33,536.14 C893.60,535.89 893.86,535.63 894.11,535.39 C893.63,535.91 893.13,536.42 892.63,536.92 C890.13,539.34 888.31,541.70 888.59,542.14 C889.74,544.00 886.74,546.83 881.30,549.01 C875.90,551.18 873.92,551.35 852.50,551.59 C839.85,551.72 826.04,551.45 821.81,550.97 ZM 363.00 128.00 L 363.00 165.00 L 367.50 165.00 C367.93,165.00 368.33,165.01 368.69,165.02 C369.73,165.06 370.48,165.08 371.02,164.75 C372.38,163.92 372.32,160.79 372.13,149.70 C372.11,148.20 372.08,146.55 372.05,144.75 L 371.79 128.00 L 386.00 128.00 L 386.00 121.00 L 350.00 121.00 L 350.00 128.00 ZM 305.45 427.45 C306.45,421.82 305.65,412.11 303.56,408.00 C301.12,403.20 295.31,397.27 290.50,394.67 C286.62,392.57 285.45,392.50 253.00,392.50 L 219.50 392.50 L 214.14 395.47 C211.01,397.20 208.34,399.34 206.15,401.76 C206.56,401.28 206.99,400.81 207.44,400.34 C210.45,397.18 212.59,394.10 212.30,393.34 C211.66,391.68 221.49,386.97 227.42,386.10 C229.66,385.77 241.62,385.50 254.00,385.50 C272.77,385.50 277.61,385.81 283.18,387.34 C288.88,388.91 290.08,389.65 291.37,392.34 C292.78,395.27 296.15,398.21 298.50,398.55 C299.05,398.63 300.01,398.76 300.63,398.85 C302.05,399.04 304.98,403.43 305.63,406.32 C305.89,407.52 306.11,410.18 306.12,412.23 C306.12,414.28 306.55,416.22 307.06,416.54 C308.24,417.27 308.28,421.47 307.13,423.76 C306.53,424.96 305.96,426.21 305.45,427.45 ZM 602.70 410.23 C602.46,409.65 602.18,409.05 601.85,408.40 C598.40,401.46 592.17,395.68 585.99,393.69 C578.63,391.31 524.12,391.18 516.23,393.53 C505.06,396.84 497.71,405.96 497.05,417.10 C497.03,413.09 497.59,411.31 499.49,407.43 C500.97,404.40 502.27,401.37 502.37,400.71 C502.74,398.28 504.21,396.93 505.89,397.46 C507.74,398.05 512.00,394.74 512.01,392.71 C512.01,392.04 513.47,390.53 515.26,389.34 C521.12,385.42 549.46,382.53 563.00,384.46 C577.53,386.54 586.47,388.87 588.22,391.03 C589.19,392.23 589.76,393.58 589.48,394.03 C589.05,394.74 592.07,396.30 594.17,396.45 C594.53,396.48 595.21,396.91 595.67,397.41 C596.16,397.95 595.89,397.98 595.00,397.47 C593.71,396.73 593.69,396.85 594.87,398.31 C596.36,400.14 597.51,400.63 596.50,399.00 C595.51,397.39 597.59,397.85 599.92,399.75 C601.96,401.42 604.04,407.76 602.17,406.60 C601.71,406.32 601.95,407.91 602.70,410.23 ZM 625.88 157.37 C620.89,160.87 614.15,158.34 611.62,152.01 C609.46,146.60 609.60,138.49 611.94,133.31 C613.48,129.92 614.60,128.90 617.79,127.94 C625.83,125.54 631.00,131.33 631.00,142.78 C631.00,149.99 629.23,155.02 625.88,157.37 ZM 305.13 333.27 C306.51,328.29 306.20,319.03 304.25,313.50 C301.98,307.02 294.74,299.78 288.37,297.61 C281.24,295.18 224.60,295.23 217.44,297.68 C214.94,298.53 212.42,300.01 210.09,301.89 C212.90,299.06 215.00,296.58 215.00,296.04 C215.00,294.20 221.47,292.01 230.30,290.86 C240.29,289.55 265.23,289.56 277.54,290.87 C288.80,292.07 293.39,294.13 295.48,298.91 C297.85,304.36 303.54,311.02 304.87,309.91 C305.48,309.40 305.78,309.27 305.54,309.61 C305.30,309.96 305.75,310.89 306.55,311.69 C308.23,313.38 308.61,325.51 307.00,326.50 C306.45,326.84 306.00,328.35 306.00,329.86 C306.00,330.79 305.69,331.96 305.13,333.27 ZM 434.68 489.50 L 401.50 489.50 C367.40,489.50 366.40,489.56 362.41,491.69 C358.21,493.94 354.06,498.15 351.29,502.86 C354.70,496.45 360.53,489.59 361.93,490.46 C362.52,490.82 363.00,490.61 363.00,490.00 C363.00,489.39 363.44,489.16 363.99,489.49 C364.55,489.84 364.73,489.46 364.41,488.62 C362.78,484.39 376.90,482.00 403.50,482.00 C427.74,482.00 433.64,483.26 433.84,488.50 C433.86,488.87 434.17,489.21 434.68,489.50 ZM 477.57 155.94 C475.85,157.37 466.43,159.09 465.49,158.16 C465.22,157.89 465.00,150.99 465.00,142.83 L 465.00 128.00 L 469.78 128.00 C477.99,128.00 482.00,132.76 482.00,142.48 C482.00,148.54 480.31,153.67 477.57,155.94 ZM 892.88 495.87 C891.11,494.35 889.02,493.05 886.61,491.92 L 880.50 489.08 L 849.50 488.93 C819.42,488.78 815.43,488.96 809.91,491.61 C810.81,491.03 812.19,489.88 813.50,488.57 C816.10,485.97 818.09,484.98 821.72,484.49 C824.35,484.14 827.80,483.44 829.40,482.93 C833.15,481.73 849.40,481.76 864.00,482.98 C882.32,484.52 883.77,484.84 887.03,488.03 C890.09,491.02 890.95,492.70 888.75,491.36 C888.06,490.94 889.81,492.86 892.62,495.61 C892.71,495.70 892.80,495.78 892.88,495.87 ZM 228.44 843.55 C235.56,847.10 241.86,850.00 242.44,850.00 C243.02,850.00 238.77,847.62 233.00,844.73 C222.44,839.43 208.01,830.18 208.01,828.71 C208.00,827.21 183.90,800.05 179.23,796.27 C168.99,787.98 167.74,786.39 159.82,771.50 C153.01,758.69 153.85,762.39 160.98,776.59 C175.55,805.62 198.96,828.86 228.44,843.55 ZM 869.27 843.73 C862.80,847.16 857.92,849.97 858.43,849.98 C860.91,850.03 882.59,838.23 891.00,832.25 C902.89,823.80 919.53,807.21 927.88,795.47 C933.64,787.38 947.09,761.98 946.93,759.50 C946.90,758.95 945.33,761.81 943.44,765.87 C938.65,776.15 930.23,789.62 927.45,791.44 C926.16,792.29 922.45,796.47 919.19,800.75 C915.94,805.03 910.62,810.73 907.39,813.43 C899.12,820.32 891.02,828.23 891.47,828.96 C892.18,830.10 881.13,837.46 869.27,843.73 ZM 680.10 139.41 C678.10,141.22 668.03,142.75 666.75,141.44 C666.34,141.01 666.00,137.82 666.00,134.33 L 666.00 128.00 L 672.00 128.00 C676.67,128.00 678.44,128.44 680.00,130.00 C682.53,132.53 682.58,137.17 680.10,139.41 ZM 794.96 515.04 C794.63,522.06 796.74,529.23 801.48,534.73 C798.22,531.53 797.87,531.51 798.69,533.62 C799.24,535.06 798.99,535.04 796.61,533.48 C793.06,531.16 792.00,528.99 792.00,524.07 C792.00,521.37 792.42,520.08 793.24,520.25 C794.00,520.40 794.56,518.71 794.96,515.04 ZM 899.11 528.65 C900.49,525.66 901.00,522.29 901.00,517.67 C901.00,510.11 899.58,504.32 896.52,499.88 C897.53,501.15 898.25,502.22 898.44,502.81 C898.82,504.01 899.71,505.00 900.41,505.00 C902.14,505.00 904.02,509.41 903.93,513.30 C903.87,515.99 903.72,516.18 903.00,514.50 C902.28,512.83 902.13,513.05 902.07,515.81 C902.03,517.78 902.41,518.87 903.00,518.50 C904.13,517.80 904.30,519.06 903.40,521.41 C903.06,522.28 902.39,522.74 901.90,522.44 C901.40,522.13 901.00,522.60 901.00,523.48 C901.00,524.74 900.29,526.59 899.11,528.65 ZM 447.63 497.23 C445.81,495.37 443.65,493.70 441.14,492.23 L 438.00 490.38 C438.99,490.47 440.05,490.45 441.02,490.28 C442.71,489.99 444.17,490.53 445.43,491.92 C446.64,493.26 446.86,494.00 446.05,494.00 C445.41,494.00 446.12,495.42 447.63,497.23 ZM 504.50 439.01 C504.17,438.46 502.90,437.49 501.69,436.86 C499.52,435.72 499.51,435.72 501.40,437.85 C503.31,440.00 505.66,440.88 504.50,439.01 ZM 453.52 525.01 C454.19,522.79 454.58,520.34 454.75,517.50 C454.89,515.30 454.81,513.19 454.53,511.19 C455.40,515.87 455.11,520.69 453.52,525.01 ZM 205.13 306.90 C202.99,309.58 201.33,312.55 200.47,315.45 C201.53,311.82 202.53,309.79 205.13,306.90 ZM 799.05 501.37 C797.88,503.29 796.96,505.37 796.28,507.53 C796.73,505.88 797.25,504.42 797.76,503.43 C798.08,502.81 798.52,502.11 799.05,501.37 ZM 202.35 407.11 C199.45,412.45 198.46,418.58 199.62,424.69 C199.48,423.96 199.36,423.24 199.29,422.54 C198.71,416.92 199.70,411.86 202.35,407.11 ZM 809.13 491.99 L 809.00 492.05 C807.85,492.64 806.76,493.30 805.74,494.04 C807.17,492.81 808.40,492.00 809.04,492.00 C809.06,492.00 809.09,492.00 809.13,491.99 ZM 199.30 325.54 C199.69,331.86 202.21,337.70 206.42,342.25 C202.11,337.68 199.67,331.81 199.30,325.54 Z" fill="rgb(60,105,91)"/>
<path d="M 963.27 247.74 C963.17,222.94 963.05,207.21 962.90,204.16 C962.11,188.06 961.28,184.57 958.50,185.64 C956.55,186.38 954.37,182.49 952.47,174.86 C950.31,166.20 947.65,161.80 944.72,162.06 C941.53,162.33 936.00,160.91 936.00,159.82 C936.00,159.30 935.59,159.14 935.09,159.45 C934.58,159.76 934.02,159.61 933.84,159.13 C933.23,157.54 925.77,153.00 923.75,153.00 C920.64,153.00 909.43,147.26 904.62,143.20 C898.12,137.71 892.94,133.73 889.62,131.66 C888.00,130.66 884.69,127.84 882.26,125.41 C879.83,122.99 877.54,120.99 877.17,120.99 C876.15,120.96 864.70,109.78 863.00,107.13 C862.17,105.85 860.48,104.41 859.22,103.92 C857.97,103.43 856.67,102.29 856.32,101.39 C855.98,100.49 853.79,98.00 851.46,95.85 C849.13,93.71 846.69,90.67 846.04,89.11 C845.40,87.55 843.77,85.68 842.43,84.96 C841.10,84.25 840.00,82.98 840.00,82.15 C840.00,80.08 836.03,76.00 834.02,76.00 C832.26,76.00 829.00,69.69 829.00,66.29 C829.00,65.16 828.33,63.68 827.50,63.00 C826.59,62.25 826.00,60.06 826.00,57.44 C826.00,53.47 825.19,52.04 822.50,51.27 C811.48,48.10 810.10,48.08 549.63,48.04 C538.50,48.04 527.84,48.04 517.62,48.03 C300.47,47.99 284.67,47.99 269.73,51.56 C267.86,52.01 265.99,52.51 263.75,53.08 C254.59,55.40 242.00,59.94 242.00,60.93 C242.00,61.31 241.20,62.50 240.22,63.56 C239.24,64.63 236.93,67.75 235.08,70.50 C233.24,73.25 230.89,76.09 229.87,76.81 C228.84,77.53 228.00,78.75 228.00,79.53 C228.00,80.31 226.83,81.72 225.40,82.66 C223.97,83.60 221.70,86.10 220.36,88.22 C219.02,90.34 213.36,96.81 207.77,102.60 C202.18,108.38 197.00,113.98 196.26,115.04 C195.52,116.10 193.02,118.29 190.71,119.91 C188.39,121.53 184.70,124.46 182.50,126.41 C180.30,128.36 177.95,129.97 177.28,129.98 C176.62,129.99 174.59,131.29 172.78,132.86 C170.98,134.44 168.15,136.41 166.50,137.26 C162.46,139.33 158.52,143.10 156.69,146.63 C154.51,150.85 147.35,172.94 146.50,178.09 C146.10,180.52 145.36,183.27 144.87,184.21 C143.81,186.22 141.00,185.51 141.00,183.23 C141.00,182.37 140.75,181.91 140.45,182.22 C138.34,184.33 138.00,222.35 137.96,459.28 L 137.92 715.26 L 137.94 459.78 C137.95,286.92 138.30,198.03 139.00,191.00 C141.16,169.35 145.88,152.86 154.94,135.22 C161.96,121.55 162.50,120.90 162.70,125.95 C162.80,128.32 162.41,130.00 161.76,130.00 C161.16,130.00 160.95,130.28 161.30,130.63 C161.65,130.98 161.46,132.14 160.88,133.22 C160.31,134.29 160.07,135.40 160.35,135.68 C160.63,135.96 161.85,134.24 163.07,131.85 C174.48,109.34 201.82,81.18 224.74,68.34 C230.13,65.32 230.85,64.58 229.99,62.98 C229.45,61.97 229.00,60.70 229.00,60.17 C229.00,58.98 245.23,51.86 254.06,49.18 C257.67,48.08 265.55,46.13 271.56,44.84 L 282.50 42.50 L 818.50 42.50 L 830.00 44.87 C843.97,47.74 847.24,49.15 848.66,52.92 C849.56,55.30 851.83,56.80 861.55,61.42 C874.28,67.47 889.48,77.21 897.50,84.46 C900.25,86.95 902.76,88.99 903.08,88.99 C903.40,89.00 904.26,90.12 905.00,91.50 C905.74,92.88 906.90,94.00 907.59,94.00 C909.86,94.00 922.05,108.30 930.09,120.39 C934.44,126.93 938.00,132.71 938.00,133.25 C938.00,133.78 938.83,133.20 939.84,131.95 C940.87,130.67 942.18,129.99 942.83,130.40 C944.67,131.53 950.88,145.55 954.62,157.00 C956.50,162.77 959.22,174.02 960.66,182.00 L 963.28 196.50 ZM 550.18 240.75 L 147.82 241.00 L 143.87 241.00 L 144.18 238.25 L 144.50 235.50 L 956.50 235.50 L 956.50 240.50 ZM 228.44 843.55 C198.96,828.86 175.55,805.62 160.98,776.59 C153.85,762.39 153.01,758.69 159.82,771.50 C167.74,786.39 168.99,787.98 179.23,796.27 C183.90,800.05 208.00,827.21 208.01,828.71 C208.01,830.18 222.44,839.43 233.00,844.73 C238.77,847.62 243.02,850.00 242.44,850.00 C241.86,850.00 235.56,847.10 228.44,843.55 ZM 869.27 843.73 C881.13,837.46 892.18,830.10 891.47,828.96 C891.02,828.23 899.12,820.32 907.39,813.43 C910.62,810.73 915.94,805.03 919.19,800.75 C922.45,796.47 926.16,792.29 927.45,791.44 C930.23,789.62 938.65,776.15 943.44,765.87 C945.33,761.81 946.90,758.95 946.93,759.50 C947.09,761.98 933.64,787.38 927.88,795.47 C919.53,807.21 902.89,823.80 891.00,832.25 C882.59,838.23 860.91,850.03 858.43,849.98 C857.92,849.97 862.80,847.16 869.27,843.73 ZM 960.60 732.16 C959.00,740.66 957.19,747.99 954.96,754.88 C957.19,747.98 958.99,740.66 960.60,732.16 L 963.17 718.50 L 963.19 702.85 L 963.18 718.50 Z" fill="rgb(87,135,120)"/>
<path d="M 602.70 410.23 C602.76,410.40 602.82,410.59 602.88,410.77 C603.03,411.19 603.18,411.61 603.34,412.02 C603.99,414.27 604.05,416.66 603.85,421.33 C603.54,428.60 603.12,430.14 600.22,434.66 C598.42,437.47 595.20,440.98 593.07,442.45 C585.69,447.56 582.22,448.01 550.59,447.90 C534.59,447.84 520.15,447.47 518.50,447.06 C510.66,445.14 502.33,438.33 499.08,431.51 C498.17,429.50 497.38,425.08 497.16,420.73 C497.10,419.32 497.05,418.14 497.05,417.10 C497.71,405.96 505.06,396.84 516.23,393.53 C524.12,391.18 578.63,391.31 585.99,393.69 C592.17,395.68 598.40,401.46 601.85,408.40 C602.18,409.05 602.46,409.65 602.70,410.23 ZM 202.35 407.11 C203.37,405.29 204.64,403.51 206.15,401.76 C208.34,399.34 211.01,397.20 214.14,395.47 L 219.50 392.50 L 253.00 392.50 C285.45,392.50 286.62,392.57 290.50,394.67 C295.31,397.27 301.12,403.20 303.56,408.00 C305.65,412.11 306.45,421.82 305.45,427.45 C304.85,428.92 304.32,430.38 303.91,431.70 C301.09,436.74 295.01,442.82 290.24,445.17 C285.62,447.44 284.70,447.51 254.50,447.75 C226.43,447.98 223.00,447.82 218.20,446.14 C211.13,443.65 206.10,439.44 202.68,433.15 C202.53,432.88 202.39,432.61 202.25,432.34 C201.06,429.88 200.13,427.22 199.62,424.69 C198.46,418.58 199.45,412.45 202.35,407.11 ZM 892.88 495.87 C894.23,497.21 895.52,498.64 896.52,499.88 C899.58,504.32 901.00,510.11 901.00,517.67 C901.00,522.29 900.49,525.66 899.11,528.65 C897.87,530.81 896.11,533.21 894.11,535.39 C893.86,535.63 893.60,535.89 893.33,536.14 C885.45,543.62 886.30,543.48 849.50,543.70 C822.46,543.86 815.76,543.63 812.39,542.41 C810.12,541.59 806.45,539.36 804.22,537.46 L 804.16 537.41 C803.78,537.02 803.35,536.59 802.88,536.12 C802.36,535.60 801.90,535.14 801.48,534.73 C796.74,529.23 794.63,522.06 794.96,515.04 C795.00,514.71 795.03,514.36 795.06,514.00 C795.25,512.00 795.71,509.62 796.28,507.53 C796.96,505.37 797.88,503.29 799.05,501.37 C800.81,498.88 803.52,495.95 805.74,494.04 C806.76,493.30 807.85,492.64 809.00,492.05 L 809.13 491.99 C809.31,491.95 809.58,491.82 809.91,491.61 C815.43,488.96 819.42,488.78 849.50,488.93 L 880.50 489.08 L 886.61 491.92 C889.02,493.05 891.11,494.35 892.88,495.87 ZM 434.68 489.50 C435.45,489.94 436.67,490.26 438.00,490.38 L 441.14 492.23 C443.65,493.70 445.81,495.37 447.63,497.23 C447.75,497.36 447.87,497.51 447.99,497.65 C451.37,501.50 453.60,506.26 454.53,511.19 C454.81,513.19 454.89,515.30 454.75,517.50 C454.58,520.34 454.19,522.79 453.52,525.01 C453.46,525.18 453.40,525.34 453.34,525.50 C453.14,525.99 452.96,526.52 452.79,527.08 C451.40,530.49 449.19,533.43 445.83,536.61 C438.22,543.82 437.07,544.01 401.73,543.91 C384.55,543.87 369.37,543.48 367.99,543.07 C360.25,540.71 354.01,535.80 350.74,529.50 C348.13,524.47 347.37,515.22 348.76,508.96 C349.20,507.35 349.86,505.70 350.75,503.90 C350.92,503.55 351.10,503.21 351.29,502.86 C354.06,498.15 358.21,493.94 362.41,491.69 C366.40,489.56 367.40,489.50 401.50,489.50 ZM 199.30 325.54 C199.11,322.26 199.48,318.87 200.46,315.50 L 200.46 315.49 L 200.47 315.45 C201.53,311.82 202.53,309.79 205.13,306.90 C206.06,305.87 207.18,304.73 208.59,303.38 C209.11,302.88 209.61,302.38 210.09,301.89 C212.42,300.01 214.94,298.53 217.44,297.68 C224.60,295.23 281.24,295.18 288.37,297.61 C294.74,299.78 301.98,307.02 304.25,313.50 C306.20,319.03 306.51,328.29 305.13,333.27 C304.11,335.69 302.27,338.58 300.06,341.19 C297.41,344.16 294.22,346.90 291.57,348.32 C287.65,350.42 286.30,350.51 254.50,350.69 C236.35,350.79 220.37,350.52 218.99,350.09 C214.44,348.66 210.54,346.30 207.43,343.29 C207.28,343.13 207.12,342.97 206.96,342.81 C206.78,342.62 206.60,342.44 206.42,342.25 C202.21,337.70 199.69,331.86 199.30,325.54 ZM 611.17 163.85 C608.66,162.61 605.73,160.04 604.21,157.74 C601.96,154.35 601.52,152.44 601.18,144.55 C600.86,137.17 601.12,134.65 602.53,131.92 C610.83,115.72 632.71,116.17 639.09,132.68 C639.69,134.23 640.21,139.10 640.25,143.50 C640.33,152.16 638.49,157.36 633.85,161.68 C628.62,166.54 618.55,167.51 611.17,163.85 ZM 455.00 121.00 L 466.04 121.00 C479.12,121.00 483.39,122.61 487.75,129.20 C491.32,134.59 492.19,146.59 489.52,153.59 C487.79,158.12 482.68,163.00 479.66,163.00 C478.75,163.00 478.00,163.45 478.00,164.00 C478.00,164.61 473.50,165.00 466.50,165.00 L 455.00 165.00 ZM 657.67 165.33 C657.30,164.97 657.00,154.83 657.00,142.80 L 657.00 120.94 L 669.25 121.06 C686.85,121.23 691.00,123.89 691.00,135.04 C691.00,139.74 690.64,140.60 687.39,143.67 C683.93,146.93 683.84,147.20 685.06,150.28 C685.76,152.05 686.65,153.95 687.03,154.50 C687.86,155.68 693.00,164.97 693.00,165.29 C693.00,165.40 690.53,165.35 687.50,165.16 C684.47,164.97 682.25,164.41 682.56,163.91 C682.87,163.41 682.73,163.00 682.25,163.00 C681.78,163.00 679.86,159.85 678.00,156.00 L 674.61 149.00 L 666.00 149.00 L 666.00 158.50 C666.00,154.38 665.79,151.00 665.54,151.00 C665.11,151.00 664.10,154.50 662.58,161.25 C661.89,164.32 659.40,164.96 658.69,162.25 C658.41,161.17 658.19,161.56 658.12,163.25 C658.05,164.76 658.12,165.44 658.95,165.75 C658.29,165.64 657.83,165.49 657.67,165.33 ZM 718.50 164.12 C710.69,160.53 708.00,154.99 708.00,142.49 C708.00,130.08 711.61,123.93 720.67,120.94 C725.15,119.47 734.87,120.19 736.08,122.09 C736.57,122.87 736.98,123.11 736.98,122.63 C737.01,121.02 742.85,127.48 743.93,130.32 C745.58,134.66 745.32,135.00 740.44,135.00 C737.93,135.00 736.13,134.60 736.44,134.10 C737.41,132.52 731.37,127.00 728.66,127.00 C720.89,127.00 717.01,132.09 717.00,142.28 C717.00,146.01 717.64,150.59 718.42,152.47 C720.74,158.01 727.65,160.48 733.45,157.84 C735.53,156.89 736.00,155.98 736.00,152.90 C736.00,149.16 735.95,149.11 731.75,148.81 C727.76,148.52 727.48,148.30 727.19,145.25 L 726.87 142.00 L 745.00 142.00 L 745.00 150.85 C745.00,158.07 744.67,159.99 743.21,161.31 C741.78,162.60 739.85,163.65 737.65,164.42 C738.73,163.98 739.74,163.27 740.79,162.25 C742.34,160.74 742.91,160.00 742.06,160.62 C741.20,161.23 739.83,161.77 739.00,161.81 C735.12,161.99 733.25,162.50 732.14,163.70 C731.15,164.75 731.60,165.00 734.44,165.00 C735.23,165.00 735.94,164.92 736.62,164.75 C730.83,166.50 723.53,166.43 718.50,164.12 ZM 411.64 164.97 C410.07,164.50 407.89,163.30 406.79,162.31 C402.37,158.31 401.67,155.24 401.20,137.75 L 400.74 121.00 L 405.26 121.00 C409.62,121.00 409.80,121.12 410.42,124.44 C410.78,126.33 410.99,133.45 410.90,140.26 C410.72,153.69 411.46,156.46 415.63,158.05 C419.76,159.62 422.95,159.14 425.55,156.55 C427.95,154.14 428.00,153.78 428.00,137.55 L 428.00 121.00 L 437.00 121.00 L 437.00 138.35 C437.00,154.70 436.87,155.89 434.75,159.00 C431.53,163.72 426.63,166.02 420.02,165.91 C416.98,165.87 413.21,165.44 411.64,164.97 ZM 309.42 164.10 C304.42,161.83 301.00,157.68 301.00,153.87 C301.00,151.19 301.26,151.00 305.02,151.00 C308.35,151.00 309.21,151.42 309.96,153.40 C311.25,156.78 314.84,159.00 319.03,159.00 C323.70,159.00 326.25,157.06 326.25,153.50 C326.25,150.13 324.22,148.44 317.92,146.57 C306.18,143.08 301.22,138.19 302.35,131.20 C303.46,124.36 310.04,120.00 319.22,120.00 C325.72,120.00 330.71,122.37 333.73,126.90 C337.35,132.32 336.83,134.00 331.53,134.00 C327.59,134.00 326.87,133.65 325.54,131.07 C323.75,127.62 321.11,126.57 316.43,127.45 C309.30,128.78 309.53,134.94 316.80,137.57 C332.71,143.34 336.49,146.78 335.67,154.79 C335.18,159.68 332.93,162.67 328.28,164.64 C323.69,166.58 314.30,166.32 309.42,164.10 ZM 945.71 134.92 C944.45,132.44 943.42,130.76 942.83,130.40 C942.18,129.99 940.87,130.67 939.84,131.95 C938.83,133.20 938.00,133.78 938.00,133.25 C938.00,132.71 934.44,126.93 930.09,120.39 C922.05,108.30 909.86,94.00 907.59,94.00 C906.90,94.00 905.74,92.88 905.00,91.50 C904.26,90.12 903.40,89.00 903.08,88.99 C902.76,88.99 900.25,86.95 897.50,84.46 C889.48,77.21 874.28,67.47 861.55,61.42 C851.83,56.80 849.56,55.30 848.66,52.92 C847.69,50.34 845.85,48.86 840.31,47.27 C854.60,50.77 873.75,59.46 888.00,68.92 C891.38,71.16 894.40,73.00 894.71,73.00 C896.75,73.00 922.79,97.99 927.01,104.00 C934.75,114.99 940.84,124.98 945.71,134.92 ZM 763.31 163.75 C762.86,163.06 762.35,153.15 762.16,141.72 L 761.82 120.95 L 777.16 121.22 L 792.50 121.50 L 793.12 127.93 L 782.31 128.22 L 771.50 128.50 L 771.19 132.82 C770.72,139.37 771.72,139.99 781.58,139.30 L 790.00 138.70 L 790.00 145.92 L 780.75 146.21 L 771.50 146.50 L 771.19 151.33 C770.74,158.41 771.63,159.00 782.62,159.00 L 792.00 159.00 L 792.00 165.00 L 778.06 165.00 C768.00,165.00 763.89,164.65 763.31,163.75 ZM 518.67 165.33 C518.30,164.97 518.00,161.00 518.00,156.52 L 518.00 148.38 L 511.02 135.44 C507.18,128.32 504.03,122.16 504.02,121.75 C504.01,121.34 506.19,121.00 508.86,121.00 L 513.72 121.00 L 518.11 130.48 C520.52,135.70 522.75,139.98 523.05,139.98 C523.35,139.99 525.38,136.29 527.55,131.75 C529.72,127.21 531.84,123.35 532.26,123.16 C532.67,122.98 532.76,122.42 532.45,121.91 C532.14,121.41 533.93,121.00 536.44,121.00 C540.00,121.00 541.00,121.36 541.00,122.64 C541.00,123.55 538.08,129.80 534.50,136.54 L 528.00 148.79 L 528.00 166.00 L 527.00 166.00 L 526.83 158.75 C526.70,153.51 526.54,152.74 526.26,155.98 C525.85,160.56 524.82,161.96 521.80,161.98 C520.46,162.00 520.03,160.89 519.74,156.75 C519.42,152.21 519.35,152.48 519.18,158.75 L 519.01 165.51 C518.85,165.46 518.73,165.40 518.67,165.33 ZM 243.19 53.14 C235.93,56.09 229.00,59.40 229.00,60.17 C229.00,60.70 229.45,61.97 229.99,62.98 C230.85,64.58 230.13,65.32 224.74,68.34 C201.82,81.18 174.48,109.34 163.07,131.85 C161.85,134.24 160.63,135.96 160.35,135.68 C160.07,135.40 160.31,134.29 160.88,133.22 C161.46,132.14 161.65,130.98 161.30,130.63 C160.95,130.28 161.16,130.00 161.76,130.00 C162.41,130.00 162.80,128.32 162.70,125.95 C162.55,122.18 162.21,121.59 159.12,127.23 C161.34,123.10 163.45,119.35 164.99,116.92 C176.22,99.06 196.14,78.94 212.91,68.50 C224.97,60.99 231.05,57.62 235.80,55.84 C238.35,54.88 240.82,53.98 243.19,53.14 ZM 557.50 164.50 L 557.50 121.50 L 586.00 120.95 L 586.00 128.00 L 566.00 128.00 L 566.00 140.00 L 585.13 140.00 L 585.00 141.31 L 585.00 140.00 L 577.75 140.17 C572.50,140.30 571.74,140.46 574.99,140.74 C577.69,140.98 580.18,141.89 581.23,143.02 C582.93,144.84 582.82,144.91 577.74,145.26 L 572.50 145.63 L 578.75 145.82 L 584.55 145.99 L 584.50 146.50 L 575.29 146.79 L 566.07 147.07 L 565.79 156.29 L 565.50 165.50 ZM 363.00 128.00 L 350.00 128.00 L 350.00 121.00 L 386.00 121.00 L 386.00 128.00 L 371.79 128.00 L 372.05 144.75 C372.08,146.55 372.11,148.20 372.13,149.70 C372.32,160.79 372.38,163.92 371.02,164.75 C370.48,165.08 369.73,165.06 368.69,165.02 C368.33,165.01 367.93,165.00 367.50,165.00 L 363.00 165.00 ZM 625.88 157.37 C629.23,155.02 631.00,149.99 631.00,142.78 C631.00,131.33 625.83,125.54 617.79,127.94 C614.60,128.90 613.48,129.92 611.94,133.31 C609.60,138.49 609.46,146.60 611.62,152.01 C614.15,158.34 620.89,160.87 625.88,157.37 ZM 477.57 155.94 C480.31,153.67 482.00,148.54 482.00,142.48 C482.00,132.76 477.99,128.00 469.78,128.00 L 465.00 128.00 L 465.00 142.83 C465.00,150.99 465.22,157.89 465.49,158.16 C466.43,159.09 475.85,157.37 477.57,155.94 ZM 680.10 139.41 C682.58,137.17 682.53,132.53 680.00,130.00 C678.44,128.44 676.67,128.00 672.00,128.00 L 666.00 128.00 L 666.00 134.33 C666.00,137.82 666.34,141.01 666.75,141.44 C668.03,142.75 678.10,141.22 680.10,139.41 ZM 793.84 42.50 L 282.50 42.50 L 271.56 44.84 C268.98,45.39 266.05,46.07 263.26,46.75 C265.96,46.01 268.53,45.38 271.00,44.83 L 281.50 42.50 L 546.50 42.21 C562.30,42.19 577.18,42.17 591.20,42.16 C706.58,42.02 763.48,41.96 793.84,42.50 ZM 687.53 141.22 C686.21,143.78 686.24,143.87 688.00,142.77 C689.03,142.13 689.67,141.28 689.43,140.89 C689.19,140.49 689.48,140.01 690.07,139.81 C690.68,139.61 690.99,137.91 690.78,135.97 L 690.41 132.50 L 689.67 135.50 C689.26,137.15 688.29,139.72 687.53,141.22 ZM 138.37 231.90 C138.08,274.57 137.94,350.35 137.94,459.78 C137.94,337.28 137.99,270.20 138.37,231.90 ZM 153.40 138.29 C150.87,143.47 148.71,148.58 146.87,153.79 C147.43,152.02 147.96,150.43 148.42,149.14 C149.17,147.05 151.08,142.96 153.40,138.29 ZM 141.17 175.00 C141.35,174.15 141.56,173.18 141.81,172.12 C141.06,175.76 140.42,179.52 139.89,183.44 C140.25,179.91 140.67,177.46 141.17,175.00 ZM 956.19 162.38 C957.94,168.58 959.40,175.05 960.66,182.00 C959.59,176.07 957.81,168.33 956.19,162.38 ZM 953.37 153.34 C951.67,148.54 949.69,143.59 947.87,139.51 C949.93,144.07 951.75,148.65 953.37,153.34 ZM 834.30 45.78 C832.99,45.49 831.56,45.19 830.00,44.87 L 828.12 44.48 C829.75,44.75 831.21,45.05 832.66,45.39 C833.21,45.52 833.75,45.65 834.30,45.78 Z" fill="rgb(131,230,187)"/>
<path d="M 0.00 464.50 L 0.00 0.00 L 564.00 0.00 L 1128.00 0.00 L 1128.00 464.50 L 1128.00 929.00 L 564.00 929.00 L 0.00 929.00 L 0.00 464.50 ZM 823.00 865.79 C824.38,865.53 827.53,864.98 830.00,864.56 C843.03,862.39 862.65,855.49 875.00,848.74 C907.04,831.24 931.06,806.53 946.69,774.98 C953.39,761.46 957.39,749.16 960.60,732.16 L 963.18 718.50 L 963.23 457.50 L 963.28 196.50 L 960.66 182.00 C955.31,152.40 946.22,131.31 927.01,104.00 C922.79,97.99 896.75,73.00 894.71,73.00 C894.40,73.00 891.38,71.16 888.00,68.92 C873.65,59.39 854.32,50.64 840.00,47.19 C816.69,41.58 834.70,41.89 546.50,42.21 L 281.50 42.50 L 271.00 44.83 C261.29,46.98 249.96,50.53 235.80,55.84 C231.05,57.62 224.97,60.99 212.91,68.50 C196.14,78.94 176.22,99.06 164.99,116.92 C160.35,124.28 150.40,143.63 148.42,149.14 C146.19,155.32 142.49,168.53 141.17,175.00 C138.12,189.94 137.95,204.99 137.94,459.78 L 137.92 718.07 L 140.07 730.28 C149.71,785.05 184.81,830.20 235.08,852.49 C249.02,858.67 262.53,862.83 274.40,864.61 C279.92,865.43 284.65,866.31 284.90,866.56 C285.50,867.17 819.78,866.40 823.00,865.79 ZM 519.18 158.75 C519.35,152.48 519.42,152.21 519.74,156.75 C520.03,160.89 520.46,162.00 521.80,161.98 C524.82,161.96 525.85,160.56 526.26,155.98 C526.54,152.74 526.70,153.51 526.83,158.75 L 527.00 166.00 L 523.00 166.00 L 519.00 166.00 L 519.18 158.75 ZM 658.12 163.25 C658.19,161.56 658.41,161.17 658.69,162.25 C659.40,164.96 661.89,164.32 662.58,161.25 C664.10,154.50 665.11,151.00 665.54,151.00 C665.79,151.00 666.00,154.38 666.00,158.50 L 666.00 166.00 L 662.00 166.00 C658.27,166.00 658.01,165.81 658.12,163.25 ZM 732.14 163.70 C733.25,162.50 735.12,161.99 739.00,161.81 C739.83,161.77 741.20,161.23 742.06,160.62 C742.91,160.00 742.34,160.74 740.79,162.25 C738.79,164.20 736.94,165.00 734.44,165.00 C731.60,165.00 731.15,164.75 732.14,163.70 ZM 577.74 145.26 C582.82,144.91 582.93,144.84 581.23,143.02 C580.18,141.89 577.69,140.98 574.99,140.74 C571.74,140.46 572.50,140.30 577.75,140.17 L 585.00 140.00 L 585.00 143.00 L 585.00 146.00 L 578.75 145.82 L 572.50 145.63 L 577.74 145.26 ZM 687.53 141.22 C688.29,139.72 689.26,137.15 689.67,135.50 L 690.41 132.50 L 690.78 135.97 C690.99,137.91 690.68,139.61 690.07,139.81 C689.48,140.01 689.19,140.49 689.43,140.89 C689.67,141.28 689.03,142.13 688.00,142.77 C686.24,143.87 686.21,143.78 687.53,141.22 Z" fill="rgb(226,227,226)"/>
</g>
</svg>